#!OML:ASF H:\BreakDance\Project 1\Capture day 1\Session 1\Male.ASF
:FULLY-SPECIFIED
:DEGREES
710
root 10.823 15.9027 -2.84655 195.391 -50.4467 -192.76
lowerback 1.8813 0.000105872 -3.44835
upperback 6.02924 -0.158758 -1.31913
thorax 5.18566 -0.315682 0.548189
lowerneck 1.45466 3.47423 -1.61945
upperneck 1.0088 4.55917 -5.29324
head 0.160172 2.24031 -1.36675
rclavicle -2.96189e-014 -1.63003e-014
rhumerus -6.01867 -7.40466 -74.3361
rradius 91.4732
rwrist 6.87104
rhand -41.7652 -26.7112
rfingers 7.12502
rthumb -14.6689 -56.1723
lclavicle -2.96189e-014 -1.63003e-014
lhumerus 14.9371 -21.5134 42.4568
lradius 54.3324
lwrist -8.67961
lhand -37.4938 -37.5227
lfingers 7.12502
lthumb -10.551 -7.80757
rfemur -36.0885 -11.6955 -4.40255
rtibia 31.5406
rfoot -12.3253 -15.7576
rtoes 9.82665
lfemur -14.8886 16.2712 -10.8767
ltibia 41.6112
lfoot -17.8601 -7.81266
ltoes -37.8314
711
root 10.7934 15.8608 -2.938 195.6 -49.0363 -193.426
lowerback 1.60813 0.0983218 -3.27339
upperback 5.92943 -0.00761933 -1.49322
thorax 5.22951 -0.224984 0.274251
lowerneck 1.6719 3.76157 -1.58276
upperneck 1.32575 4.93962 -5.78696
head 0.243691 2.41828 -1.52992
rclavicle 8.01102e-014 -3.10104e-014
rhumerus -3.725 -7.70345 -73.44
rradius 89.0295
rwrist 6.67889
rhand -41.347 -27.1892
rfingers 7.12502
rthumb -14.266 -56.6792
lclavicle 8.01102e-014 -3.10104e-014
lhumerus 15.7938 -21.4862 40.2179
lradius 50.3348
lwrist -8.1141
lhand -36.9979 -36.3364
lfingers 7.12502
lthumb -10.0726 -6.59743
rfemur -35.3772 -9.92313 -6.32113
rtibia 30.3471
rfoot -12.477 -18.9961
rtoes 14.9156
lfemur -12.1665 12.2234 -10.8777
ltibia 38.1402
lfoot -19.4145 -7.35237
ltoes -39.4159
712
root 10.7635 15.808 -3.03111 195.843 -47.6271 -194.065
lowerback 1.31756 0.200206 -3.11313
upperback 5.81214 0.149426 -1.66247
thorax 5.26699 -0.131561 0.0147168
lowerneck 1.86604 4.04912 -1.50345
upperneck 1.60091 5.32148 -6.2939
head 0.322523 2.59708 -1.70569
rclavicle 2.84262e-014 3.97569e-014
rhumerus -1.48862 -7.87858 -72.62
rradius 86.5891
rwrist 6.63282
rhand -40.7953 -27.4004
rfingers 7.12502
rthumb -13.7343 -56.9271
lclavicle 2.84262e-014 3.97569e-014
lhumerus 16.4749 -21.8525 37.9446
lradius 46.7439
lwrist -7.42158
lhand -36.3142 -34.9849
lfingers 7.12502
lthumb -9.41294 -5.21509
rfemur -34.9152 -8.53413 -8.01237
rtibia 29.4917
rfoot -12.9947 -22.0856
rtoes 19.3377
lfemur -9.37016 7.85001 -11.086
ltibia 34.4246
lfoot -21.0165 -6.37581
ltoes -41.7027
713
root 10.7342 15.7481 -3.12603 196.121 -46.1852 -194.685
lowerback 1.01815 0.312899 -3.01544
upperback 5.67696 0.321823 -1.81384
thorax 5.29237 -0.0333863 -0.189744
lowerneck 2.02938 4.32585 -1.38817
upperneck 1.84985 5.69086 -6.82811
head 0.402975 2.7691 -1.89727
rclavicle -9.85972e-014 3.10104e-014
rhumerus 0.661201 -7.88396 -71.8411
rradius 84.1666
rwrist 6.70368
rhand -40.1547 -27.3366
rfingers 7.12502
rthumb -13.1169 -56.9041
lclavicle -9.85972e-014 3.10104e-014
lhumerus 16.8585 -22.6306 35.6761
lradius 43.7648
lwrist -6.54994
lhand -35.3718 -33.5067
lfingers 7.12502
lthumb -8.50363 -3.69789
rfemur -34.7712 -7.91336 -9.295
rtibia 29.0042
rfoot -13.4774 -24.8624
rtoes 22.9897
lfemur -6.50167 3.384 -11.5144
ltibia 30.5647
lfoot -22.3836 -5.04589
ltoes -44.0164
714
root 10.7064 15.6867 -3.22313 196.412 -44.6784 -195.26
lowerback 0.717783 0.432525 -3.02851
upperback 5.53828 0.504094 -1.92049
thorax 5.31528 0.0633596 -0.284592
lowerneck 2.14329 4.59822 -1.2591
upperneck 2.06834 6.0562 -7.40396
head 0.4873 2.93793 -2.10532
rclavicle 7.67309e-014 -1.43125e-014
rhumerus 2.72586 -7.6284 -71.0612
rradius 81.7937
rwrist 6.82623
rhand -39.496 -27.1184
rfingers 7.12502
rthumb -12.4819 -56.7256
lclavicle 7.67309e-014 -1.43125e-014
lhumerus 16.8077 -23.7509 33.5032
lradius 41.5435
lwrist -5.52133
lhand -34.2004 -32.0116
lfingers 7.12502
lthumb -7.37297 -2.16004
rfemur -35.0379 -8.43544 -9.95759
rtibia 28.9247
rfoot -13.0703 -27.2423
rtoes 25.0479
lfemur -3.54494 -0.84128 -12.1437
ltibia 26.6064
lfoot -23.294 -3.68228
ltoes -45.6647
715
root 10.6826 15.6293 -3.32327 196.688 -43.0723 -195.737
lowerback 0.452385 0.549051 -3.20221
upperback 5.38574 0.682146 -1.95166
thorax 5.30216 0.149481 -0.210684
lowerneck 2.19199 4.88667 -1.11215
upperneck 2.26083 6.44566 -8.05502
head 0.582532 3.11649 -2.34122
rclavicle -2.40529e-014 2.54444e-014
rhumerus 4.69936 -7.0364 -70.2998
rradius 79.5186
rwrist 6.97815
rhand -38.8528 -26.9032
rfingers 7.12502
rthumb -11.8617 -56.5472
lclavicle -2.40529e-014 2.54444e-014
lhumerus 16.1388 -25.0369 31.617
lradius 40.1347
lwrist -4.48383
lhand -32.8806 -30.6777
lfingers 7.12502
lthumb -6.09897 -0.785508
rfemur -35.8443 -10.2334 -9.84729
rtibia 29.2814
rfoot -11.17 -28.8917
rtoes 23.7511
lfemur -0.481546 -4.4128 -12.9067
ltibia 22.5065
lfoot -23.6562 -2.47849
ltoes -46.5293
716
root 10.6658 15.5809 -3.42728 196.959 -41.3432 -196.08
lowerback 0.239443 0.659758 -3.5635
upperback 5.21399 0.852489 -1.90032
thorax 5.23505 0.222735 0.0535784
lowerneck 2.17159 5.20568 -0.92425
upperneck 2.40677 6.87856 -8.79777
head 0.686539 3.31491 -2.61502
rclavicle -3.97569e-016 0
rhumerus 6.5304 -6.03688 -69.5402
rradius 77.4336
rwrist 7.11504
rhand -38.2028 -26.8304
rfingers 7.12502
rthumb -11.2349 -56.5095
lclavicle -3.97569e-016 0
lhumerus 14.7392 -26.2548 30.2151
lradius 39.4844
lwrist -3.74506
lhand -31.5384 -29.652
lfingers 7.12502
lthumb -4.80307 0.273577
rfemur -37.3038 -13.0697 -8.93936
rtibia 30.0661
rfoot -7.70626 -29.1292
rtoes 19.9966
lfemur 2.70646 -6.88135 -13.6896
ltibia 18.0994
lfoot -23.4104 -1.54932
ltoes -46.6263
